<svg width="30" height="17" viewBox="0 0 30 17" fill="none" xmlns="http://www.w3.org/2000/svg">
<g clip-path="url(#clip0_544_4)">
<path d="M29.2431 9.17175C29.6141 8.80075 29.6141 8.19925 29.2431 7.82825L23.1974 1.78249C22.8264 1.41149 22.2249 1.41149 21.8539 1.78249C21.4829 2.15348 21.4829 2.75499 21.8539 3.12599L27.2279 8.5L21.8539 13.874C21.4829 14.245 21.4829 14.8465 21.8539 15.2175C22.2249 15.5885 22.8264 15.5885 23.1974 15.2175L29.2431 9.17175ZM15.7142 9.45H28.5714V7.55H15.7142V9.45Z" fill="black"/>
<path fill-rule="evenodd" clip-rule="evenodd" d="M0 16.0556C0 15.8051 0.0820964 15.5648 0.228229 15.3877C0.374361 15.2106 0.572559 15.1111 0.779221 15.1111H16.3636C16.5703 15.1111 16.7685 15.2106 16.9146 15.3877C17.0608 15.5648 17.1429 15.8051 17.1429 16.0556C17.1429 16.306 17.0608 16.5463 16.9146 16.7234C16.7685 16.9005 16.5703 17 16.3636 17H0.779221C0.572559 17 0.374361 16.9005 0.228229 16.7234C0.0820964 16.5463 0 16.306 0 16.0556ZM0 8.5C0 8.24952 0.0820964 8.00929 0.228229 7.83218C0.374361 7.65506 0.572559 7.55556 0.779221 7.55556H16.3636C16.5703 7.55556 16.7685 7.65506 16.9146 7.83218C17.0608 8.00929 17.1429 8.24952 17.1429 8.5C17.1429 8.75048 17.0608 8.99071 16.9146 9.16782C16.7685 9.34494 16.5703 9.44444 16.3636 9.44444H0.779221C0.572559 9.44444 0.374361 9.34494 0.228229 9.16782C0.0820964 8.99071 0 8.75048 0 8.5ZM0 0.944444C0 0.693962 0.0820964 0.453739 0.228229 0.276622C0.374361 0.0995039 0.572559 0 0.779221 0H16.3636C16.5703 0 16.7685 0.0995039 16.9146 0.276622C17.0608 0.453739 17.1429 0.693962 17.1429 0.944444C17.1429 1.19493 17.0608 1.43515 16.9146 1.61227C16.7685 1.78938 16.5703 1.88889 16.3636 1.88889H8.57143H0.779221C0.572559 1.88889 0.374361 1.78938 0.228229 1.61227C0.0820964 1.43515 0 1.19493 0 0.944444Z" fill="black"/>
</g>
<defs>
<clipPath id="clip0_544_4">
<rect width="30" height="17" fill="white"/>
</clipPath>
</defs>
</svg>
