<svg width="184" height="184" viewBox="0 0 184 184" fill="none" xmlns="http://www.w3.org/2000/svg">
<circle cx="92" cy="92" r="92" fill="#FFDEB3" fill-opacity="0.26"/>
<circle cx="93.039" cy="91.039" r="83.039" fill="#FFDEB3"/>
<g clip-path="url(#clip0_22_8)">
<path d="M70.5 136C70.5 136 64.875 136 64.875 130.375C64.875 124.75 70.5 107.875 93 107.875C115.5 107.875 121.125 124.75 121.125 130.375C121.125 136 115.5 136 115.5 136H70.5ZM93 102.531C96.7296 102.531 100.306 101.05 102.944 98.4124C105.581 95.7752 107.062 92.1984 107.062 88.4688C107.062 84.7391 105.581 81.1623 102.944 78.5251C100.306 75.8878 96.7296 74.4062 93 74.4062C89.2704 74.4062 85.6935 75.8878 83.0563 78.5251C80.4191 81.1623 78.9375 84.7391 78.9375 88.4688C78.9375 92.1984 80.4191 95.7752 83.0563 98.4124C85.6935 101.05 89.2704 102.531 93 102.531Z" fill="#4C3226"/>
<path d="M59.25 51.625C56.2663 51.625 53.4048 52.8103 51.295 54.92C49.1853 57.0298 48 59.8913 48 62.875V116.312C48 118.55 48.8889 120.696 50.4713 122.279C52.0536 123.861 54.1997 124.75 56.4375 124.75H60.1106C61.2911 120.618 63.3348 116.784 66.1069 113.5H53.625V62.875C53.625 61.3832 54.2176 59.9524 55.2725 58.8975C56.3274 57.8426 57.7582 57.25 59.25 57.25H126.75C128.242 57.25 129.673 57.8426 130.727 58.8975C131.782 59.9524 132.375 61.3832 132.375 62.875V113.5H119.893C123.009 117.179 124.899 121.223 125.889 124.75H129.562C131.8 124.75 133.946 123.861 135.529 122.279C137.111 120.696 138 118.55 138 116.312V62.875C138 59.8913 136.815 57.0298 134.705 54.92C132.595 52.8103 129.734 51.625 126.75 51.625H59.25Z" fill="#4C3226"/>
</g>
<defs>
<clipPath id="clip0_22_8">
<rect width="90" height="90" fill="white" transform="translate(48 46)"/>
</clipPath>
</defs>
</svg>
